<svg viewBox="0 0 850 272" width="850" height="272" xmlns="http://www.w3.org/2000/svg" role="img" aria-label="whoami — terminal" font-family="ui-monospace,'JetBrains Mono',Consolas,monospace">
  <rect x="6" y="6" width="838" height="260" rx="12" fill="#0a0e14" stroke="#1e293b"/>
  <path d="M6 18 a12 12 0 0 1 12 -12 h814 a12 12 0 0 1 12 12 v22 h-838 z" fill="#111827"/>
  <line x1="6" y1="40" x2="844" y2="40" stroke="#1e293b"/>
  <circle cx="32" cy="23" r="6" fill="#ff5f56"/><circle cx="52" cy="23" r="6" fill="#ffbd2e"/><circle cx="72" cy="23" r="6" fill="#27c93f"/>
  <text x="425" y="27" fill="#64748b" font-size="12" text-anchor="middle">observer@sky — zsh</text>
  <g font-size="13.5">
    <text x="28" y="72" fill="#e2e8f0"><tspan fill="#22d3ee">$ </tspan>whoami</text>
    <text x="28" y="94" fill="#94a3b8">Md. Latiful Kabir &#183; Full-Stack Engineer @ <tspan fill="#fbbf24">FlowGenX AI</tspan>  <tspan fill="#475569">(@Saimon8420 &#183; Dhaka)</tspan></text>
    <text x="28" y="124" fill="#e2e8f0"><tspan fill="#22d3ee">$ </tspan>cat about.txt</text>
    <text x="28" y="146" fill="#94a3b8">Turns fuzzy problems into clean, practical software that ships.</text>
    <text x="28" y="167" fill="#94a3b8">C &amp; Java  &#8594;  TypeScript &amp; Python  &#8594;  now exploring Rust &amp; Go.</text>
    <text x="28" y="197" fill="#e2e8f0"><tspan fill="#22d3ee">$ </tspan>./highlights --recent</text>
    <text x="28" y="219" fill="#94a3b8"><tspan fill="#c4b5fd">&#9672;</tspan> agentic-AI @ FlowGenX AI &#160; <tspan fill="#c4b5fd">&#9672;</tspan> led Affpilot AI front-end &#183; <tspan fill="#34d399">90k+ users</tspan></text>
    <text x="28" y="240" fill="#94a3b8"><tspan fill="#c4b5fd">&#9672;</tspan> ships relentlessly &#8212; idea &#8594; live product, end to end</text>
    <text x="28" y="264" fill="#22d3ee">$ </text><rect x="42" y="253" width="9" height="14" fill="#22d3ee"><animate attributeName="opacity" values="1;0;1" dur="1s" repeatCount="indefinite"/></rect>
  </g>
</svg>
